<mxfile host="Electron" modified="2023-11-14T09:07:26.959Z" agent="Mozilla/5.0 (Windows NT 10.0; Win64; x64) AppleWebKit/537.36 (KHTML, like Gecko) draw.io/22.0.3 Chrome/114.0.5735.289 Electron/25.8.4 Safari/537.36" etag="8Lrl3WhxmZ9pBxb1lcm4" version="22.0.3" type="device">
  <diagram id="prtHgNgQTEPvFCAcTncT" name="Page-1">
    <mxGraphModel dx="1036" dy="606" grid="1" gridSize="10" guides="1" tooltips="1" connect="1" arrows="1" fold="1" page="1" pageScale="1" pageWidth="827" pageHeight="1169" math="0" shadow="0">
      <root>
        <mxCell id="0" />
        <mxCell id="1" parent="0" />
        <mxCell id="dNxyNK7c78bLwvsdeMH5-19" value="Scholaris App Cross-Functional Flowchart&amp;nbsp;" style="swimlane;html=1;childLayout=stackLayout;resizeParent=1;resizeParentMax=0;horizontal=0;startSize=20;horizontalStack=0;container=0;rotation=90;" parent="1" vertex="1">
          <mxGeometry x="120" y="120" width="450" height="360" as="geometry" />
        </mxCell>
        <mxCell id="dNxyNK7c78bLwvsdeMH5-21" value="Teacher" style="swimlane;html=1;startSize=20;horizontal=0;container=0;rotation=90;" parent="1" vertex="1">
          <mxGeometry x="130" y="250" width="430" height="120" as="geometry" />
        </mxCell>
        <mxCell id="dNxyNK7c78bLwvsdeMH5-22" value="Director" style="swimlane;html=1;startSize=20;horizontal=0;container=0;rotation=90;" parent="dNxyNK7c78bLwvsdeMH5-21" vertex="1">
          <mxGeometry x="-120" width="430" height="120" as="geometry" />
        </mxCell>
        <mxCell id="6ruUtQXPkUnAc-VDmloF-9" value="" style="edgeStyle=orthogonalEdgeStyle;rounded=0;orthogonalLoop=1;jettySize=auto;html=1;" edge="1" parent="dNxyNK7c78bLwvsdeMH5-22" source="6ruUtQXPkUnAc-VDmloF-5" target="6ruUtQXPkUnAc-VDmloF-8">
          <mxGeometry relative="1" as="geometry" />
        </mxCell>
        <mxCell id="6ruUtQXPkUnAc-VDmloF-5" value="Inisialisasi sekolah" style="rounded=0;whiteSpace=wrap;html=1;" vertex="1" parent="dNxyNK7c78bLwvsdeMH5-22">
          <mxGeometry x="163.75" y="-70" width="97.5" height="40" as="geometry" />
        </mxCell>
        <mxCell id="6ruUtQXPkUnAc-VDmloF-7" value="" style="edgeStyle=orthogonalEdgeStyle;rounded=0;orthogonalLoop=1;jettySize=auto;html=1;" edge="1" parent="dNxyNK7c78bLwvsdeMH5-22" source="6ruUtQXPkUnAc-VDmloF-6" target="6ruUtQXPkUnAc-VDmloF-5">
          <mxGeometry relative="1" as="geometry" />
        </mxCell>
        <mxCell id="6ruUtQXPkUnAc-VDmloF-6" value="&lt;font style=&quot;font-size: 12px;&quot;&gt;Start&lt;/font&gt;" style="ellipse;whiteSpace=wrap;html=1;" vertex="1" parent="dNxyNK7c78bLwvsdeMH5-22">
          <mxGeometry x="165" y="-130" width="95" height="40" as="geometry" />
        </mxCell>
        <mxCell id="6ruUtQXPkUnAc-VDmloF-8" value="Menambahkan member teacher" style="rounded=0;whiteSpace=wrap;html=1;" vertex="1" parent="dNxyNK7c78bLwvsdeMH5-22">
          <mxGeometry x="163.75" y="-10" width="97.5" height="40" as="geometry" />
        </mxCell>
        <mxCell id="6ruUtQXPkUnAc-VDmloF-10" value="Membuat kelas" style="whiteSpace=wrap;html=1;rounded=0;" vertex="1" parent="dNxyNK7c78bLwvsdeMH5-22">
          <mxGeometry x="163.75" y="50" width="97.5" height="40" as="geometry" />
        </mxCell>
        <mxCell id="6ruUtQXPkUnAc-VDmloF-11" value="" style="edgeStyle=orthogonalEdgeStyle;rounded=0;orthogonalLoop=1;jettySize=auto;html=1;" edge="1" parent="dNxyNK7c78bLwvsdeMH5-22" source="6ruUtQXPkUnAc-VDmloF-8" target="6ruUtQXPkUnAc-VDmloF-10">
          <mxGeometry relative="1" as="geometry" />
        </mxCell>
        <mxCell id="6ruUtQXPkUnAc-VDmloF-12" value="Menambahkan member parent" style="whiteSpace=wrap;html=1;rounded=0;" vertex="1" parent="dNxyNK7c78bLwvsdeMH5-21">
          <mxGeometry x="166.25" y="50" width="97.5" height="40" as="geometry" />
        </mxCell>
        <mxCell id="6ruUtQXPkUnAc-VDmloF-13" style="edgeStyle=orthogonalEdgeStyle;rounded=0;orthogonalLoop=1;jettySize=auto;html=1;exitX=1;exitY=0.5;exitDx=0;exitDy=0;entryX=0;entryY=0.5;entryDx=0;entryDy=0;" edge="1" parent="dNxyNK7c78bLwvsdeMH5-21" source="6ruUtQXPkUnAc-VDmloF-10" target="6ruUtQXPkUnAc-VDmloF-12">
          <mxGeometry relative="1" as="geometry" />
        </mxCell>
        <mxCell id="dNxyNK7c78bLwvsdeMH5-20" value="Parent" style="swimlane;html=1;startSize=20;horizontal=0;container=0;rotation=90;" parent="1" vertex="1">
          <mxGeometry x="250" y="250" width="430" height="120" as="geometry" />
        </mxCell>
        <mxCell id="6ruUtQXPkUnAc-VDmloF-36" value="" style="edgeStyle=orthogonalEdgeStyle;rounded=0;orthogonalLoop=1;jettySize=auto;html=1;" edge="1" parent="1" source="6ruUtQXPkUnAc-VDmloF-30" target="6ruUtQXPkUnAc-VDmloF-35">
          <mxGeometry relative="1" as="geometry" />
        </mxCell>
        <mxCell id="6ruUtQXPkUnAc-VDmloF-30" value="Membuat informasi" style="whiteSpace=wrap;html=1;rounded=0;" vertex="1" parent="1">
          <mxGeometry x="296.25" y="360" width="97.5" height="40" as="geometry" />
        </mxCell>
        <mxCell id="6ruUtQXPkUnAc-VDmloF-31" value="" style="edgeStyle=orthogonalEdgeStyle;rounded=0;orthogonalLoop=1;jettySize=auto;html=1;" edge="1" parent="1" source="6ruUtQXPkUnAc-VDmloF-12" target="6ruUtQXPkUnAc-VDmloF-30">
          <mxGeometry relative="1" as="geometry" />
        </mxCell>
        <mxCell id="6ruUtQXPkUnAc-VDmloF-39" style="edgeStyle=orthogonalEdgeStyle;rounded=0;orthogonalLoop=1;jettySize=auto;html=1;entryX=0.5;entryY=0;entryDx=0;entryDy=0;" edge="1" parent="1" source="6ruUtQXPkUnAc-VDmloF-35" target="6ruUtQXPkUnAc-VDmloF-38">
          <mxGeometry relative="1" as="geometry" />
        </mxCell>
        <mxCell id="6ruUtQXPkUnAc-VDmloF-35" value="Menerima informasi" style="whiteSpace=wrap;html=1;rounded=0;" vertex="1" parent="1">
          <mxGeometry x="416.25" y="361" width="97.5" height="40" as="geometry" />
        </mxCell>
        <mxCell id="6ruUtQXPkUnAc-VDmloF-38" value="&lt;font style=&quot;font-size: 12px;&quot;&gt;End&lt;/font&gt;" style="ellipse;whiteSpace=wrap;html=1;" vertex="1" parent="1">
          <mxGeometry x="418" y="470" width="95" height="40" as="geometry" />
        </mxCell>
      </root>
    </mxGraphModel>
  </diagram>
</mxfile>
